<svg width="382" height="47" viewBox="0 0 382 47" fill="none" xmlns="http://www.w3.org/2000/svg">
<g clip-path="url(#clip0)">
<path d="M59.8135 46.4089H50.1555V0H59.8135V46.4089Z" fill="#54B970"/>
<path d="M110.764 0V46.4089H105.809C105.063 46.4089 104.43 46.2873 103.919 46.044C103.409 45.8008 102.906 45.3791 102.419 44.779L79.2918 15.3507C79.3566 16.0968 79.4053 16.8347 79.4377 17.5564C79.4702 18.2781 79.4864 18.9512 79.4864 19.5756V46.4089H71.0042V0H76.0562C76.4616 0 76.8103 0.0162184 77.0942 0.0486552C77.378 0.081092 77.6456 0.154075 77.8808 0.275713C78.1159 0.397351 78.343 0.551426 78.5538 0.737937C78.7647 0.924449 78.9998 1.18394 79.2593 1.50831L102.541 31.0663C102.46 30.2554 102.395 29.4688 102.346 28.7147C102.306 27.9605 102.281 27.2388 102.281 26.5576V0H110.764Z" fill="#54B970"/>
<path d="M131.621 7.51723V19.4459H147.101V26.7036H131.621V38.8917H151.512V46.4089H121.954V0H151.512V7.51723H131.621Z" fill="#54B970"/>
<path d="M203.444 6.4306V45.9792H196.218V21.6921C196.218 21.1812 196.235 20.6379 196.259 20.0541C196.283 19.4702 196.34 18.8863 196.405 18.2863L185.109 39.7351C184.492 40.919 183.536 41.5029 182.246 41.5029H181.103C180.47 41.5029 179.903 41.3569 179.416 41.0569C178.93 40.7568 178.532 40.3189 178.248 39.7351L166.887 18.2052C166.944 18.8377 166.985 19.454 167.025 20.0459C167.058 20.6379 167.082 21.1893 167.082 21.6921V45.9792H159.857V6.4306H166.068C166.417 6.4306 166.725 6.43871 166.993 6.45493C167.269 6.47115 167.504 6.5198 167.715 6.6009C167.925 6.68199 168.112 6.81174 168.29 6.98203C168.461 7.15232 168.631 7.3956 168.793 7.70375L179.854 28.7958C180.203 29.4283 180.519 30.0851 180.819 30.7582C181.119 31.4313 181.403 32.1205 181.679 32.826C181.954 32.0962 182.238 31.3907 182.538 30.7014C182.838 30.0122 183.163 29.3472 183.503 28.7147L194.483 7.70375C194.645 7.3956 194.815 7.15232 195.002 6.98203C195.18 6.81174 195.375 6.68199 195.586 6.6009C195.797 6.5198 196.032 6.47115 196.291 6.45493C196.551 6.43871 196.867 6.4306 197.232 6.4306H203.444Z" fill="#54B970"/>
<path d="M247.566 45.9791H241.216C240.511 45.9791 239.927 45.8088 239.489 45.4763C239.043 45.1439 238.71 44.706 238.492 44.1789L235.824 36.6292H220.076L217.408 44.1789C217.229 44.633 216.905 45.0466 216.451 45.4196C215.997 45.7926 215.421 45.9791 214.732 45.9791H208.325L223.773 6.43866H232.142L247.566 45.9791ZM233.837 30.9609L229.555 18.862C229.304 18.2294 229.036 17.4834 228.752 16.6238C228.469 15.7723 228.201 14.8398 227.95 13.8424C227.698 14.856 227.431 15.8048 227.147 16.6644C226.863 17.5239 226.595 18.2781 226.344 18.9106L222.095 30.9528H233.837V30.9609Z" fill="#54B970"/>
<path d="M273.896 14.0127C273.645 14.4344 273.385 14.7344 273.118 14.929C272.85 15.1237 272.51 15.2129 272.096 15.2129C271.699 15.2129 271.269 15.075 270.799 14.7912C270.336 14.5074 269.793 14.2073 269.177 13.8749C268.56 13.5505 267.847 13.2423 267.052 12.9585C266.257 12.6747 265.317 12.5368 264.246 12.5368C262.357 12.5368 260.938 12.9585 259.997 13.8019C259.056 14.6452 258.578 15.7481 258.578 17.1104C258.578 17.9862 258.837 18.7079 259.356 19.2756C259.875 19.8513 260.557 20.346 261.4 20.7596C262.243 21.1812 263.2 21.5462 264.279 21.8786C265.349 22.203 266.452 22.5679 267.579 22.9572C268.706 23.3464 269.801 23.8086 270.88 24.3357C271.95 24.8628 272.907 25.5278 273.75 26.3225C274.594 27.1253 275.275 28.0984 275.794 29.2499C276.313 30.4014 276.572 31.8043 276.572 33.4586C276.572 35.2588 276.256 36.9455 275.632 38.5106C275.007 40.0838 274.099 41.4542 272.923 42.622C271.739 43.7897 270.288 44.7141 268.552 45.3872C266.817 46.0603 264.846 46.3927 262.649 46.3927C261.392 46.3927 260.143 46.263 258.902 46.0116C257.662 45.7602 256.461 45.4034 255.31 44.9493C254.158 44.4952 253.072 43.9519 252.05 43.3112C251.036 42.6787 250.144 41.9651 249.382 41.1866L251.782 37.3185C251.985 37.0266 252.245 36.7914 252.569 36.5968C252.893 36.4022 253.242 36.313 253.607 36.313C254.094 36.313 254.613 36.4914 255.156 36.8563C255.699 37.2212 256.332 37.6186 257.037 38.0565C257.743 38.4944 258.57 38.8917 259.502 39.2566C260.435 39.6216 261.562 39.8 262.868 39.8C264.773 39.8 266.249 39.3621 267.295 38.4944C268.341 37.6186 268.86 36.3211 268.86 34.5939C268.86 33.5964 268.601 32.7855 268.082 32.1692C267.563 31.5529 266.89 31.0339 266.055 30.6122C265.219 30.1906 264.263 29.8338 263.192 29.5337C262.122 29.2337 261.019 28.9012 259.892 28.5363C258.764 28.1714 257.67 27.7335 256.591 27.2307C255.521 26.7198 254.564 26.0468 253.729 25.2115C252.893 24.3763 252.22 23.3383 251.701 22.1057C251.182 20.8731 250.923 19.3323 250.923 17.4997C250.923 16.0319 251.215 14.6047 251.799 13.218C252.383 11.8394 253.234 10.615 254.361 9.53643C255.488 8.46602 256.875 7.59833 258.521 6.9496C260.167 6.29275 262.049 5.96838 264.173 5.96838C266.549 5.96838 268.755 6.3333 270.782 7.07123C272.81 7.80917 274.521 8.83093 275.924 10.1365L273.896 14.0127Z" fill="#54B970"/>
<path d="M311.75 13.0315H300.194V45.9792H291.988V13.0315H280.432V6.4306H311.742V13.0315H311.75Z" fill="#54B970"/>
<path d="M326.16 12.8369V22.9977H339.354V29.185H326.16V39.5648H343.108V45.9711H317.929V6.4306H343.108V12.8369H326.16Z" fill="#54B970"/>
<path d="M382 45.9792H374.612C373.234 45.9792 372.228 45.4521 371.612 44.3979L364.095 32.2746C363.787 31.8043 363.446 31.4556 363.073 31.2366C362.7 31.0177 362.149 30.9123 361.427 30.9123H358.645V45.9792H350.471V6.4306H362.895C365.652 6.4306 368.02 6.71442 369.982 7.29018C371.945 7.86593 373.55 8.66063 374.807 9.67428C376.064 10.696 376.98 11.9043 377.556 13.3153C378.14 14.7263 378.424 16.2752 378.424 17.9619C378.424 19.2675 378.237 20.5082 377.864 21.684C377.491 22.8517 376.948 23.9221 376.242 24.8871C375.537 25.8521 374.661 26.7036 373.623 27.4496C372.585 28.1957 371.409 28.7958 370.079 29.2499C370.607 29.5418 371.093 29.8905 371.555 30.296C372.009 30.7014 372.415 31.188 372.78 31.7556L382 45.9792ZM362.846 25.1547C364.168 25.1547 365.319 24.9844 366.276 24.652C367.241 24.3195 368.028 23.8492 368.644 23.2653C369.26 22.6733 369.714 21.984 370.006 21.1812C370.298 20.3784 370.444 19.5107 370.444 18.562C370.444 16.6887 369.82 15.2372 368.579 14.1992C367.338 13.1612 365.441 12.6422 362.895 12.6422H358.645V25.1547H362.846Z" fill="#54B970"/>
<path d="M39.9054 13.8829C38.762 11.0447 37.1563 8.60386 35.0723 6.54412C32.9963 4.48439 30.4906 2.87877 27.5713 1.72726C24.652 0.575753 21.4083 0 17.8483 0H0V46.4089H17.8483C21.4083 46.4089 24.652 45.8332 27.5713 44.6817C30.4906 43.5302 32.9963 41.9327 35.0723 39.881C37.1482 37.8375 38.762 35.3885 39.9054 32.5422C41.0488 29.6959 41.6164 26.5738 41.6164 23.1842C41.6164 19.8189 41.0406 16.7212 39.9054 13.8829ZM18.8458 40.5622C16.5509 40.5622 6.09812 25.1791 6.56845 17.6132C7.50101 2.53007 28.7471 3.56805 31.4394 14.8317C34.1316 26.0954 20.8082 40.5622 18.8458 40.5622Z" fill="#54B970"/>
<path d="M10.0391 13.9964C9.44715 14.5072 8.92817 16.1453 10.6311 19.2754C12.3097 22.3488 14.5884 26.371 15.9183 26.7683C15.9183 26.7683 21.4731 37.9104 22.3489 38.3239C23.2247 38.7375 25.1547 38.2185 24.6114 36.7994C24.0518 35.3398 17.3131 26.2575 17.3131 26.2575C17.3131 26.2575 17.6618 25.6412 16.6806 24.1247C15.1398 21.7406 11.9448 15.4884 11.0447 14.2721C10.55 13.6233 10.177 13.8828 10.0391 13.9964Z" fill="#54B970"/>
<path d="M22.276 22.3652C21.9192 21.0678 21.5462 19.7379 22.2598 18.6918C22.9734 17.6457 25.8441 13.5019 25.8441 13.5019L26.5415 13.9155L23.4519 19.0729L24.0763 19.4784L27.3767 14.4507L27.9525 14.7669L25.0413 20.0136L25.7711 20.4434L28.8039 15.2778L29.3878 15.6265C29.3878 15.6265 27.2551 20.4353 26.5577 21.2948C25.8603 22.1544 25.1143 22.6085 23.2735 22.9897C23.2735 22.9897 19.3405 31.0259 18.3917 32.7531C17.2483 34.8372 16.0806 38.6485 15.1237 38.8269C14.1668 39.0053 12.3098 39.2162 12.2693 37.0348C13.3397 34.7966 17.4835 29.6392 18.5458 27.6119C19.7541 25.2846 22.276 22.3652 22.276 22.3652Z" fill="#54B970"/>
</g>
<defs>
<clipPath id="clip0">
<rect width="382" height="46.4089" fill="white"/>
</clipPath>
</defs>
</svg>
